<?xml version="1.0" standalone="no"?>
<!DOCTYPE svg PUBLIC "-//W3C//DTD SVG 20010904//EN"
 "http://www.w3.org/TR/2001/REC-SVG-20010904/DTD/svg10.dtd">
<svg version="1.0" xmlns="http://www.w3.org/2000/svg"
 width="512.000000pt" height="512.000000pt" viewBox="0 0 512.000000 512.000000"
 preserveAspectRatio="xMidYMid meet">
<metadata>
Created by potrace 1.14, written by Peter Selinger 2001-2017
</metadata>
<g transform="translate(0.000000,512.000000) scale(0.100000,-0.100000)"
fill="#000000" stroke="none">
<path d="M1400 5103 c-26 -9 -61 -47 -81 -84 -10 -20 -61 -142 -114 -270 -53
-129 -102 -247 -109 -264 -7 -16 -46 -110 -86 -207 -61 -150 -76 -178 -94
-179 -11 0 -106 -1 -211 -2 -172 -2 -193 -4 -225 -22 -120 -71 -126 -239 -12
-315 50 -33 41 -32 297 -32 l170 0 -2 -152 c-1 -83 -2 -156 -2 -161 -1 -6 -22
-17 -48 -24 -58 -17 -139 -67 -182 -112 -35 -37 -86 -137 -95 -184 -39 -207
77 -398 279 -462 33 -10 61 -23 61 -28 5 -38 52 -161 81 -215 76 -136 206
-287 338 -390 22 -17 47 -36 55 -43 8 -7 39 -27 68 -46 29 -18 51 -35 50 -36
-2 -2 -44 -6 -94 -9 -51 -4 -100 -8 -111 -10 -10 -2 -44 -7 -75 -11 -55 -7
-56 -6 -74 24 -10 17 -21 31 -24 31 -4 0 -22 21 -40 48 -19 26 -37 49 -40 52
-5 5 -35 42 -77 96 -122 157 -311 393 -327 406 -40 36 -107 17 -125 -36 -4
-12 -7 -232 -6 -489 l1 -468 -55 -53 c-234 -222 -376 -467 -450 -776 -27 -115
-35 -185 -35 -315 0 -97 3 -117 26 -166 32 -70 97 -135 168 -168 l55 -26 1750
0 1750 0 55 26 c131 62 211 206 196 352 l-5 46 42 11 c68 17 158 51 203 76 24
13 47 24 52 24 5 0 118 -109 253 -243 134 -134 259 -254 277 -266 62 -43 172
-33 230 22 52 48 73 140 50 211 -7 20 -107 128 -271 293 l-260 262 36 73 c162
332 97 719 -165 979 -157 156 -364 241 -591 242 -135 1 -228 -18 -344 -69
l-53 -23 0 225 0 225 -25 24 c-40 41 -80 34 -131 -22 -38 -42 -455 -567 -490
-617 -13 -19 -22 -19 -194 9 -14 2 -63 4 -110 5 -83 1 -84 1 -60 18 180 124
352 287 433 410 57 86 110 197 126 268 l12 51 58 16 c162 45 279 193 286 361
7 176 -112 345 -276 394 l-56 16 -2 162 -2 161 223 0 c125 1 234 5 249 11 40
16 90 63 105 99 28 66 12 152 -37 204 -46 48 -87 56 -298 57 -107 1 -197 5
-201 9 -4 4 -89 208 -189 453 -100 245 -190 458 -200 475 -22 38 -76 75 -111
75 -25 0 -65 -13 -125 -40 -66 -29 -183 -64 -270 -80 -211 -39 -415 -7 -677
104 -38 16 -70 19 -98 9z"/>
</g>
</svg>
